<svg xmlns="http://www.w3.org/2000/svg" xmlns:se="http://svg-edit.googlecode.com" xmlns:xlink="http://www.w3.org/1999/xlink" xmlns:dc="http://purl.org/dc/elements/1.1/" xmlns:cc="http://creativecommons.org/ns#" xmlns:rdf="http://www.w3.org/1999/02/22-rdf-syntax-ns#" xmlns:inkscape="http://www.inkscape.org/namespaces/inkscape" width="777" height="480" style="">                                    <title>my vector image</title>                                    <!-- Created with Vector Paint - http://www.vectorpaint.yaks.com/ https://chrome.google.com/webstore/detail/hnbpdiengicdefcjecjbnjnoifekhgdo -->                                    <rect id="backgroundrect" width="100%" height="100%" x="0" y="0" fill="#FFFFFF" stroke="none"/>                                <g class="currentLayer" style=""><title>Layer 1</title><polyline fill="#e84141" stroke="#222222" stroke-width="2" stroke-linejoin="round" stroke-dashoffset="" fill-rule="nonzero" marker-start="" marker-mid="" marker-end="" id="svg_1" points="279.6999816894531,161 272.6999816894531,161.5 270.1999816894531,161.5 267.6999816894531,161.5 264.6999816894531,162 263.6999816894531,163.5 262.6999816894531,165 262.6999816894531,167.5 267.6999816894531,171 278.6999816894531,175 305.6999816894531,183 319.6999816894531,185.5 333.6999816894531,189.5 346.6999816894531,196 352.6999816894531,203 352.6999816894531,205.5 351.6999816894531,209 349.6999816894531,217 349.6999816894531,225.5 352.6999816894531,235.5 361.6999816894531,249 374.1999816894531,265 389.6999816894531,279.5 402.6999816894531,293 412.6999816894531,305 417.6999816894531,311.5 419.6999816894531,315.5 419.6999816894531,317.5 422.1999816894531,321 433.6999816894531,326 446.6999816894531,329 464.6999816894531,329 479.6999816894531,329 486.6999816894531,329 487.6999816894531,328 485.6999816894531,327 482.1999816894531,325 481.6999816894531,324 482.1999816894531,322 487.6999816894531,320 498.6999816894531,318 503.6999816894531,315.5 509.6999816894531,313.5 " style="color: rgb(0, 0, 0);" class="selected" fill-opacity="1"/><polyline fill="#eb1a1a" stroke="#222222" stroke-width="2" stroke-linejoin="round" stroke-dashoffset="" fill-rule="nonzero" marker-start="" marker-mid="" marker-end="" id="svg_2" points="355.1999900758268,241.99999353289613 355.1999900758268,241.99999353289613 " style="color: rgb(0, 0, 0);"/></g></svg>